<svg width="915" height="86" fill="none" xmlns="http://www.w3.org/2000/svg"><rect width="915" height="86" rx="8" fill="#F6F6F6"/><g clip-path="url(#clip0_61_49)"><path d="M45.073 22.08c-11.598 0-21 9.401-21 21 0 11.598 9.402 21 21 21 11.599 0 21-9.402 21-21s-9.401-21-21-21zm9.63 30.287a1.308 1.308 0 01-1.8.434c-4.93-3.012-11.138-3.694-18.448-2.024a1.31 1.31 0 01-.583-2.552c8-1.828 14.862-1.041 20.398 2.342.616.378.812 1.183.433 1.8zm2.57-5.718a1.637 1.637 0 01-2.251.54c-5.645-3.47-14.25-4.475-20.927-2.448a1.64 1.64 0 01-2.043-1.09 1.64 1.64 0 011.092-2.043c7.627-2.314 17.108-1.193 23.59 2.79a1.637 1.637 0 01.54 2.252zm.221-5.954c-6.768-4.02-17.935-4.39-24.397-2.429a1.964 1.964 0 11-1.14-3.759c7.418-2.252 19.75-1.816 27.542 2.81a1.962 1.962 0 01.687 2.691 1.963 1.963 0 01-2.69.687h-.002zm23.713.77c-3.626-.864-4.27-1.471-4.27-2.746 0-1.205 1.133-2.016 2.82-2.016 1.636 0 3.256.616 4.956 1.883.05.038.116.054.178.044a.234.234 0 00.158-.097l1.77-2.496a.238.238 0 00-.044-.323c-2.024-1.623-4.301-2.412-6.964-2.412-3.915 0-6.65 2.35-6.65 5.711 0 3.605 2.359 4.881 6.436 5.867 3.469.799 4.055 1.468 4.055 2.665 0 1.327-1.183 2.152-3.09 2.152-2.116 0-3.843-.715-5.774-2.385a.235.235 0 00-.336.025l-1.986 2.362a.239.239 0 00.022.331c2.247 2.006 5.01 3.064 7.995 3.064 4.218 0 6.944-2.304 6.944-5.873.007-3.01-1.796-4.678-6.212-5.752l-.008-.004zm15.764-3.576c-1.828 0-3.328.72-4.567 2.196v-1.66a.237.237 0 00-.235-.239H88.92a.237.237 0 00-.236.238v18.457c0 .13.106.238.236.238h3.248c.13 0 .235-.107.235-.238v-5.825c1.24 1.387 2.739 2.066 4.567 2.066 3.398 0 6.838-2.615 6.838-7.616.005-5-3.435-7.617-6.836-7.617h-.002zm3.062 7.617c0 2.545-1.567 4.324-3.814 4.324-2.22 0-3.895-1.859-3.895-4.324S94 41.184 96.22 41.184c2.209 0 3.814 1.817 3.814 4.322zm12.591-7.617c-4.376 0-7.804 3.37-7.804 7.672 0 4.256 3.406 7.589 7.751 7.589 4.391 0 7.829-3.358 7.829-7.644 0-4.27-3.415-7.616-7.776-7.616zm0 11.966c-2.327 0-4.083-1.871-4.083-4.35 0-2.49 1.696-4.297 4.03-4.297 2.343 0 4.108 1.87 4.108 4.352 0 2.489-1.705 4.295-4.055 4.295zm17.12-11.669h-3.573v-3.653a.237.237 0 00-.236-.237h-3.247a.24.24 0 00-.239.237v3.653h-1.56a.237.237 0 00-.235.238v2.79c0 .131.105.239.235.239h1.56v7.22c0 2.917 1.452 4.396 4.319 4.396 1.163 0 2.129-.24 3.039-.757.075-.04.12-.12.12-.206v-2.658a.235.235 0 00-.113-.2.23.23 0 00-.23-.01 4.102 4.102 0 01-1.906.459c-1.041 0-1.507-.474-1.507-1.533v-6.71h3.573a.237.237 0 00.236-.238v-2.79a.23.23 0 00-.233-.238l-.003-.002zm12.449.014v-.448c0-1.32.506-1.909 1.64-1.909.677 0 1.221.135 1.83.338a.234.234 0 00.213-.033.235.235 0 00.098-.193v-2.736a.235.235 0 00-.168-.228 8.893 8.893 0 00-2.698-.388c-2.997 0-4.584 1.689-4.584 4.882v.687h-1.56a.24.24 0 00-.238.238v2.805c0 .13.108.237.238.237h1.56v11.136c0 .133.108.238.238.238h3.245a.236.236 0 00.238-.238V41.453h3.032l4.644 11.135c-.526 1.169-1.045 1.402-1.753 1.402-.571 0-1.176-.17-1.79-.51a.258.258 0 00-.188-.017.239.239 0 00-.141.128l-1.1 2.415a.237.237 0 00.102.309c1.149.621 2.185.887 3.466.887 2.397 0 3.724-1.118 4.89-4.122l5.632-14.554a.23.23 0 00-.025-.222.23.23 0 00-.193-.103h-3.38a.238.238 0 00-.226.16l-3.463 9.889-3.792-9.896a.237.237 0 00-.22-.153h-5.547zm-7.218-.014h-3.247a.238.238 0 00-.238.238v14.164c0 .133.107.238.238.238h3.247a.238.238 0 00.239-.238V38.425a.238.238 0 00-.239-.238zm-1.605-6.45a2.328 2.328 0 10-.002 4.656 2.328 2.328 0 00.002-4.655zm28.443 11.004a2.277 2.277 0 01-2.285-2.285 2.298 2.298 0 012.298-2.296 2.276 2.276 0 012.284 2.283 2.298 2.298 0 01-2.297 2.298zm.013-4.354c-1.172 0-2.057.93-2.057 2.07 0 1.138.88 2.056 2.044 2.056 1.171 0 2.056-.93 2.056-2.07 0-1.138-.88-2.056-2.043-2.056zm.506 2.291l.647.905h-.547l-.581-.83h-.499v.83h-.457v-2.398h1.068c.56 0 .926.285.926.765.002.393-.226.633-.554.728h-.003zm-.386-1.082h-.594v.759h.594c.296 0 .474-.145.474-.38 0-.247-.178-.379-.474-.379z" fill="#272D38"/></g><path d="M316.925 51.426l1.468-3.431c1.608 1.19 3.704 1.82 5.801 1.82 1.538 0 2.517-.595 2.517-1.505-.035-2.521-9.262-.56-9.332-6.899-.035-3.221 2.831-5.707 6.886-5.707 2.411 0 4.823.595 6.535 1.961l-1.372 3.505c-1.576-1.013-3.521-1.72-5.373-1.72-1.258 0-2.098.595-2.098 1.366.036 2.486 9.332 1.12 9.437 7.179 0 3.291-2.796 5.603-6.78 5.603-2.936 0-5.627-.7-7.689-2.172zm58.458-4.674a4.257 4.257 0 01-3.712 2.17 4.268 4.268 0 01-4.263-4.271 4.268 4.268 0 014.263-4.272 4.259 4.259 0 013.712 2.17l4.082-2.266a8.924 8.924 0 00-7.794-4.58c-4.931 0-8.929 4.006-8.929 8.948 0 4.94 3.998 8.947 8.929 8.947a8.924 8.924 0 007.794-4.58l-4.082-2.266zm-41.34 6.495h5.102V28.256h-5.102v24.991zm47.999-24.991v24.991h5.102V45.76l6.046 7.487h6.523l-7.689-8.895 7.129-8.3h-6.242l-5.767 6.901V28.256h-5.102zm-27.176 7.797v2.032c-.839-1.401-2.901-2.381-5.068-2.381-4.473 0-8.003 3.957-8.003 8.93 0 4.971 3.53 8.964 8.003 8.964 2.167 0 4.229-.98 5.068-2.382v2.031h5.102V36.053h-5.102zm0 10.734c-.734 1.225-2.272 2.135-3.984 2.135a4.267 4.267 0 01-4.264-4.271 4.267 4.267 0 014.264-4.272c1.712 0 3.25.945 3.984 2.205v4.203zm-64.888-19.083a2.997 2.997 0 00-2.767 4.147 3.01 3.01 0 001.621 1.623c.363.151.753.229 1.146.23h2.995v-3a3 3 0 00-2.995-3zm0 8h-7.984a2.998 2.998 0 00-2.994 3c0 1.656 1.341 3 2.994 3h7.985a2.997 2.997 0 002.994-3c0-1.657-1.341-3-2.995-3zm18.963 3c0-1.657-1.341-3-2.994-3a2.997 2.997 0 00-2.994 3v3h2.994a2.995 2.995 0 002.994-3zm-7.984 0v-8a2.994 2.994 0 10-5.988 0v8c0 1.657 1.34 3 2.994 3a2.999 2.999 0 002.994-3m-2.994 19a2.997 2.997 0 002.994-3 2.994 2.994 0 00-2.994-3h-2.994v3c0 1.656 1.34 3 2.994 3zm0-8h7.984a2.998 2.998 0 002.994-3 2.994 2.994 0 00-2.994-3h-7.984a2.997 2.997 0 00-2.767 4.147 2.992 2.992 0 002.767 1.852m-18.963-3a3.009 3.009 0 00.876 2.12 2.999 2.999 0 002.118.88 2.995 2.995 0 002.994-3v-3h-2.994a2.997 2.997 0 00-2.994 3zm7.984 0v8c0 1.657 1.34 3 2.994 3a2.995 2.995 0 002.994-3v-8a2.991 2.991 0 00-2.994-3 2.997 2.997 0 00-2.994 3zm273.066-13.69h7.622c4.86 0 8.874 2.812 8.874 9.231v1.35c0 6.467-3.754 9.376-8.727 9.376h-7.769V33.013zm4.258 3.624V49.33h3.267c2.763 0 4.615-1.804 4.615-5.818v-1.056c0-4.015-1.95-5.819-4.761-5.819h-3.121zm14.497.195h3.413l.552 3.755c.651-2.552 2.308-3.917 5.315-3.917h1.056v4.306h-1.755c-3.462 0-4.307 1.203-4.307 4.616v7.427h-4.209V36.832h-.065zm11.181 8.419v-.455c0-5.412 3.462-8.37 8.175-8.37 4.811 0 8.175 2.958 8.175 8.37v.455c0 5.314-3.267 8.175-8.175 8.175-5.217-.05-8.175-2.845-8.175-8.175zm12.043-.049v-.406c0-3.007-1.511-4.81-3.917-4.81-2.356 0-3.916 1.657-3.916 4.81v.406c0 2.91 1.511 4.567 3.916 4.567 2.406-.049 3.917-1.658 3.917-4.567zm6.517-8.37h3.51l.407 3.056c.845-2.048 2.649-3.462 5.314-3.462 4.112 0 6.826 2.958 6.826 8.435v.455c0 5.314-3.007 8.126-6.826 8.126-2.551 0-4.307-1.154-5.168-3.007v8.175h-4.112l.049-21.778zm11.783 8.37v-.358c0-3.217-1.658-4.81-3.868-4.81-2.357 0-3.917 1.804-3.917 4.81v.31c0 2.86 1.511 4.664 3.868 4.664 2.421-.05 3.917-1.593 3.917-4.616zm10.498 4.827l-.357 2.958h-3.608V31.42h4.112v8.273c.91-2.113 2.714-3.267 5.265-3.267 3.868.049 6.729 2.714 6.729 8.077v.504c0 5.363-2.715 8.435-6.826 8.435-2.714-.065-4.47-1.317-5.315-3.413zm7.818-5.022v-.406c0-2.958-1.609-4.616-3.868-4.616-2.308 0-3.917 1.853-3.917 4.665v.357c0 3.007 1.56 4.762 3.868 4.762 2.47 0 3.917-1.544 3.917-4.762zm6.126.244v-.455c0-5.412 3.462-8.37 8.175-8.37 4.811 0 8.175 2.958 8.175 8.37v.455c0 5.314-3.315 8.175-8.175 8.175-5.217-.05-8.175-2.845-8.175-8.175zm12.076-.049v-.406c0-3.007-1.512-4.81-3.917-4.81-2.357 0-3.917 1.657-3.917 4.81v.406c0 2.91 1.512 4.567 3.917 4.567 2.421-.049 3.917-1.658 3.917-4.567zm9.783-.601l-5.672-7.769h4.86l3.266 4.86 3.316-4.86h4.81l-5.753 7.72 6.062 8.435h-4.762l-3.705-5.363-3.608 5.363h-4.973l6.159-8.386zM533.852 33.013l-9.426 6.013 9.426 6.014-9.426 6.013L515 45.007l9.426-6.013-9.426-5.98L524.426 27l9.426 6.013zm-9.475 19.974l9.426-6.013 9.427 6.013L533.803 59l-9.426-6.013zm9.475-7.98l9.426-6.013-9.426-5.98L543.23 27l9.426 6.013-9.426 6.013 9.426 6.014-9.426 6.013-9.378-6.046z" fill="#272D38"/><path fill-rule="evenodd" clip-rule="evenodd" d="M872.707 39.597c.374.646.497 1.38.537 2.206l.053 1.1v7.698l.055 1.102c.108 1.799 1.435 3.13 3.249 3.243l1.096.054V42.904l.054-1.1c.045-.817.166-1.566.546-2.216a4.4 4.4 0 016.006-1.596 4.4 4.4 0 011.606 1.61c.374.646.491 1.394.536 2.201l.054 1.098v7.7l.054 1.102c.113 1.808 1.43 3.139 3.249 3.243l1.096.054V41.803a8.804 8.804 0 00-8.797-8.8 8.776 8.776 0 00-6.601 2.98 8.79 8.79 0 00-6.601-2.982 8.712 8.712 0 00-4.927 1.512c-.857-.956-2.774-1.512-3.875-1.512V55l1.101-.054c1.841-.122 3.171-1.416 3.243-3.243l.059-1.102v-7.697l.054-1.1c.046-.831.162-1.561.537-2.211a4.406 4.406 0 016.006-1.604c.669.386 1.224.94 1.61 1.608zm-75.308 15.35L798.5 55h16.499l-.054-1.097c-.149-1.809-1.43-3.13-3.245-3.248l-1.1-.054h-9.899l13.197-13.202-.054-1.096c-.086-1.827-1.421-3.147-3.244-3.248l-1.101-.05L793 33.002l.054 1.1c.145 1.792 1.444 3.141 3.243 3.245l1.102.055h9.898l-13.196 13.2.054 1.102c.109 1.813 1.417 3.126 3.244 3.243zm58.38-18.726A11.01 11.01 0 01859.001 44a10.996 10.996 0 01-11.002 11 11.007 11.007 0 01-7.78-3.221c-4.295-4.296-4.295-11.261 0-15.557A10.993 10.993 0 01847.992 33a11 11 0 017.787 3.222zm-3.113 3.115a6.604 6.604 0 010 9.335 6.602 6.602 0 01-11.267-4.667 6.6 6.6 0 0111.267-4.668zM824.906 33a10.988 10.988 0 017.773 3.222c4.297 4.295 4.297 11.261 0 15.556a11.007 11.007 0 01-15.56 0c-4.295-4.296-4.295-11.261 0-15.557A11.004 11.004 0 01824.892 33h.014zm4.661 6.334a6.605 6.605 0 010 9.336 6.605 6.605 0 01-9.335 0 6.604 6.604 0 010-9.335 6.603 6.603 0 019.335 0v-.001z" fill="#272D38"/><defs><clipPath id="clip0_61_49"><path fill="#fff" transform="translate(24 19)" d="M0 0h140v48H0z"/></clipPath></defs></svg>