<svg width="915" height="86" viewBox="0 0 915 86" fill="none" xmlns="http://www.w3.org/2000/svg">
<rect width="915" height="86" rx="8" fill="#F6F6F6"/>
<g clip-path="url(#clip0_61_49)">
<path d="M45.0727 22.0791C33.4747 22.0791 24.0723 31.4813 24.0723 43.0792C24.0723 54.6777 33.4747 64.0791 45.0727 64.0791C56.6719 64.0791 66.0733 54.6777 66.0733 43.0792C66.0733 31.482 56.6719 22.0801 45.0724 22.0801L45.0727 22.0791ZM54.7033 52.3673C54.3271 52.9842 53.5196 53.1798 52.9028 52.8011C47.9721 49.7894 41.765 49.1073 34.455 50.7774C33.7506 50.9379 33.0484 50.4966 32.8879 49.7919C32.7267 49.0872 33.1663 48.3851 33.8724 48.2246C41.872 46.3969 48.7339 47.1839 54.2695 50.5668C54.8864 50.9454 55.082 51.7504 54.7033 52.3673ZM57.2737 46.6492C56.7997 47.4196 55.7916 47.6628 55.0218 47.1889C49.3769 43.7192 40.7722 42.7144 34.0954 44.7411C33.2295 45.0026 32.3149 44.5146 32.0521 43.6502C31.7913 42.7843 32.2795 41.8715 33.1439 41.6082C40.7707 39.2941 50.2521 40.415 56.7345 44.3985C57.5044 44.8725 57.7477 45.8806 57.2737 46.6495V46.6492ZM57.4944 40.6949C50.726 36.6748 39.5592 36.3051 33.097 38.2664C32.0593 38.5811 30.962 37.9953 30.6475 36.9576C30.333 35.9194 30.9183 34.8228 31.9568 34.5073C39.3749 32.2554 51.7066 32.6905 59.4991 37.3165C60.4344 37.8704 60.7404 39.0759 60.1862 40.008C59.6345 40.9414 58.4257 41.2491 57.4954 40.6949H57.4944ZM81.2074 41.4653C77.5812 40.6006 76.9367 39.9937 76.9367 38.7186C76.9367 37.5139 78.0702 36.7031 79.7579 36.7031C81.3929 36.7031 83.0129 37.3187 84.7132 38.5861C84.7633 38.6245 84.8285 38.6398 84.8912 38.6298C84.9564 38.6203 85.0116 38.5854 85.0492 38.533L86.8196 36.0373C86.8924 35.9345 86.8723 35.7928 86.7745 35.7143C84.7508 34.0911 82.4738 33.3019 79.8106 33.3019C75.896 33.3019 73.1601 35.6514 73.1601 39.013C73.1601 42.6178 75.5199 43.8942 79.5974 44.8795C83.0656 45.6787 83.6524 46.3483 83.6524 47.545C83.6524 48.8716 82.4687 49.6966 80.5629 49.6966C78.4464 49.6966 76.7185 48.9819 74.7876 47.3118C74.74 47.2691 74.6748 47.2516 74.6146 47.2541C74.5494 47.2591 74.4917 47.2892 74.4516 47.3368L72.4655 49.6991C72.3827 49.7994 72.3927 49.9449 72.488 50.0301C74.7349 52.0363 77.4984 53.0945 80.4826 53.0945C84.7006 53.0945 87.4265 50.79 87.4265 47.2215C87.434 44.2105 85.631 42.5428 81.2149 41.4685L81.2074 41.4653ZM96.9709 37.8893C95.1428 37.8893 93.6431 38.6095 92.4043 40.0853V38.4242C92.4043 38.293 92.299 38.1862 92.1686 38.1862H88.9211C88.7907 38.1862 88.6854 38.293 88.6854 38.4242V56.8812C88.6854 57.0116 88.7907 57.1194 88.9211 57.1194H92.1686C92.299 57.1194 92.4043 57.0116 92.4043 56.8812V51.0558C93.6431 52.4425 95.1428 53.1221 96.9709 53.1221C100.369 53.1221 103.809 50.5066 103.809 45.5064C103.814 40.5053 100.374 37.889 96.9734 37.889L96.9709 37.8893ZM100.033 45.5064C100.033 48.0515 98.4655 49.8295 96.2186 49.8295C93.9992 49.8295 92.3241 47.9713 92.3241 45.5064C92.3241 43.0414 93.9992 41.1836 96.2186 41.1836C98.4279 41.1834 100.033 43.001 100.033 45.5062V45.5064ZM112.624 37.8893C108.248 37.8893 104.82 41.2586 104.82 45.5609C104.82 49.817 108.226 53.1497 112.571 53.1497C116.962 53.1497 120.4 49.7919 120.4 45.5064C120.4 41.2356 116.985 37.8898 112.624 37.8898V37.8893ZM112.624 49.8546C110.297 49.8546 108.541 47.9838 108.541 45.5052C108.541 43.0153 110.237 41.2085 112.571 41.2085C114.914 41.2085 116.679 43.0785 116.679 45.5596C116.679 48.049 114.974 49.8546 112.624 49.8546ZM129.744 38.1862H126.171V34.5334C126.171 34.4025 126.065 34.2957 125.935 34.2957H122.688C122.557 34.2957 122.449 34.4025 122.449 34.5334V38.1862H120.889C120.759 38.1862 120.654 38.293 120.654 38.4242V41.2145C120.654 41.3454 120.759 41.4525 120.889 41.4525H122.449V48.6734C122.449 51.5899 123.901 53.0695 126.768 53.0695C127.931 53.0695 128.897 52.8287 129.807 52.3121C129.882 52.272 129.927 52.1918 129.927 52.1065V49.4483C129.927 49.3681 129.885 49.2903 129.814 49.2477C129.744 49.2026 129.656 49.2001 129.584 49.2377C128.959 49.5511 128.355 49.6966 127.678 49.6966C126.637 49.6966 126.171 49.2226 126.171 48.1644V41.4537H129.744C129.875 41.4537 129.98 41.3469 129.98 41.2157V38.4257C129.985 38.2945 129.88 38.1877 129.747 38.1877L129.744 38.1862ZM142.193 38.2005V37.7518C142.193 36.432 142.699 35.8435 143.833 35.8435C144.51 35.8435 145.054 35.9779 145.663 36.181C145.738 36.2046 145.816 36.1928 145.876 36.1479C145.939 36.103 145.974 36.031 145.974 35.9548V33.2189C145.974 33.1143 145.909 33.0218 145.806 32.9909C145.164 32.7996 144.342 32.6032 143.108 32.6032C140.111 32.6032 138.524 34.2919 138.524 37.485V38.1721H136.964C136.834 38.1721 136.726 38.279 136.726 38.4099V41.2145C136.726 41.3454 136.834 41.4525 136.964 41.4525H138.524V52.588C138.524 52.7209 138.632 52.8262 138.762 52.8262H142.007C142.14 52.8262 142.245 52.7209 142.245 52.588V41.4532H145.277L149.921 52.588C149.395 53.7566 148.876 53.9898 148.168 53.9898C147.597 53.9898 146.992 53.8193 146.378 53.4807C146.32 53.4506 146.25 53.4456 146.19 53.4632C146.127 53.4858 146.075 53.5309 146.049 53.5911L144.949 56.006C144.896 56.1214 144.941 56.2543 145.051 56.3145C146.2 56.9364 147.236 57.2022 148.517 57.2022C150.914 57.2022 152.241 56.0837 153.407 53.0795L159.039 38.5255C159.07 38.4522 159.059 38.3695 159.014 38.3045C158.972 38.2401 158.899 38.2012 158.821 38.2012H155.441C155.338 38.2012 155.248 38.2657 155.215 38.3607L151.752 48.2496L147.96 38.3542C147.925 38.2622 147.837 38.2012 147.74 38.2012H142.193V38.2005ZM134.975 38.1862H131.728C131.597 38.1862 131.49 38.293 131.49 38.4242V52.588C131.49 52.7209 131.597 52.8262 131.728 52.8262H134.975C135.106 52.8262 135.214 52.7209 135.214 52.588V38.4252C135.214 38.294 135.108 38.1872 134.975 38.1872V38.1862ZM133.37 31.7366C132.084 31.7366 131.041 32.7778 131.041 34.064C131.041 35.3509 132.084 36.3934 133.37 36.3934C134.657 36.3934 135.698 35.3509 135.698 34.064C135.698 32.778 134.654 31.7366 133.37 31.7366ZM161.813 42.7404C160.529 42.7404 159.528 41.7085 159.528 40.4554C159.528 39.2023 160.542 38.1586 161.826 38.1586C163.109 38.1586 164.11 39.1903 164.11 40.4424C164.11 41.6955 163.097 42.7404 161.813 42.7404ZM161.826 38.3858C160.654 38.3858 159.769 39.3161 159.769 40.4554C159.769 41.5942 160.649 42.512 161.813 42.512C162.984 42.512 163.869 41.5824 163.869 40.4424C163.869 39.3036 162.989 38.3858 161.826 38.3858ZM162.332 40.6773L162.979 41.5821H162.432L161.851 40.7521H161.352V41.5821H160.895V39.1837H161.963C162.523 39.1837 162.889 39.4689 162.889 39.9488C162.891 40.3421 162.663 40.5823 162.335 40.6773H162.332ZM161.946 39.5953H161.352V40.3538H161.946C162.242 40.3538 162.42 40.2086 162.42 39.9742C162.42 39.7274 162.242 39.5953 161.946 39.5953Z" fill="#272D38"/>
</g>
<path d="M316.925 51.4264L318.393 47.9949C320.001 49.1853 322.097 49.8154 324.194 49.8154C325.732 49.8154 326.711 49.2204 326.711 48.3102C326.676 45.789 317.449 47.7498 317.379 41.4112C317.344 38.1897 320.21 35.7036 324.265 35.7036C326.676 35.7036 329.088 36.2991 330.8 37.665L329.428 41.1696C327.852 40.1566 325.907 39.4504 324.055 39.4504C322.797 39.4504 321.957 40.0453 321.957 40.8162C321.993 43.3023 331.289 41.9365 331.394 47.9949C331.394 51.2865 328.598 53.5977 324.614 53.5977C321.678 53.5977 318.987 52.8975 316.925 51.4264H316.925ZM375.383 46.7523C375.013 47.4108 374.473 47.9588 373.821 48.3402C373.169 48.7216 372.427 48.9226 371.671 48.9227C369.317 48.9227 367.408 47.01 367.408 44.6507C367.408 42.2914 369.317 40.3786 371.671 40.3786C372.427 40.3787 373.169 40.5797 373.821 40.9611C374.473 41.3425 375.013 41.8905 375.383 42.549L379.465 40.2834C377.936 37.5512 375.02 35.7036 371.671 35.7036C366.74 35.7036 362.742 39.709 362.742 44.6507C362.742 49.5918 366.74 53.5977 371.671 53.5977C375.02 53.5977 377.936 51.7502 379.465 49.0179L375.383 46.7523ZM334.043 53.2473H339.145V28.2558H334.043L334.043 53.2473ZM382.042 28.2558V53.2473H387.144V45.7599L393.19 53.2473H399.713L392.024 44.3524L399.153 36.0525H392.911L387.144 42.953V28.2558H382.042ZM354.866 36.0535V38.085C354.027 36.684 351.965 35.7036 349.798 35.7036C345.325 35.7036 341.795 39.6609 341.795 44.6331C341.795 49.6054 345.325 53.5977 349.798 53.5977C351.965 53.5977 354.027 52.6173 354.866 51.2163V53.2473H359.968V36.0535H354.866ZM354.866 46.7869C354.132 48.0124 352.594 48.9222 350.882 48.9222C348.526 48.9222 346.618 47.01 346.618 44.6507C346.618 42.2914 348.526 40.3786 350.882 40.3786C352.594 40.3786 354.132 41.324 354.866 42.5841V46.7869Z" fill="#272D38"/>
<path d="M289.978 27.7036C288.325 27.7036 286.984 29.0469 286.984 30.7035C286.984 31.0971 287.061 31.4868 287.211 31.8506C287.362 32.2143 287.582 32.5449 287.86 32.8235C288.138 33.1021 288.468 33.3231 288.832 33.4741C289.195 33.6251 289.585 33.703 289.978 33.7034H292.973V30.7035C292.973 29.9086 292.658 29.1461 292.097 28.5835C291.535 28.0209 290.773 27.7044 289.978 27.7036ZM289.978 35.7033H281.994C280.341 35.7033 279 37.0466 279 38.7037C279 40.3603 280.341 41.7036 281.994 41.7036H289.979C291.632 41.7036 292.973 40.3603 292.973 38.7037C292.973 37.0466 291.632 35.7033 289.978 35.7033Z" fill="#272D38"/>
<path d="M308.941 38.7037C308.941 37.0466 307.6 35.7033 305.947 35.7033C304.293 35.7033 302.953 37.0466 302.953 38.7037V41.7036H305.947C306.742 41.7028 307.504 41.3863 308.065 40.8237C308.627 40.2612 308.942 39.4986 308.941 38.7037ZM300.957 38.7037V30.7035C300.958 29.9086 300.643 29.1461 300.081 28.5835C299.519 28.0209 298.757 27.7044 297.963 27.7036C296.309 27.7036 294.969 29.0469 294.969 30.7035V38.7032C294.969 40.3608 296.309 41.7041 297.963 41.7041C298.757 41.7033 299.519 41.3868 300.081 40.8242C300.643 40.2617 300.958 39.4991 300.957 38.7042" fill="#272D38"/>
<path d="M297.963 57.7036C298.757 57.7028 299.52 57.3863 300.081 56.8237C300.643 56.2612 300.958 55.4986 300.957 54.7037C300.958 53.9088 300.643 53.1463 300.081 52.5837C299.52 52.0211 298.757 51.7046 297.963 51.7038H294.969V54.7037C294.969 56.3603 296.309 57.7036 297.963 57.7036ZM297.963 49.7039H305.947C307.6 49.7039 308.941 48.3606 308.941 46.7035C308.942 45.9086 308.627 45.1461 308.065 44.5835C307.504 44.0209 306.742 43.7044 305.947 43.7036H297.963C296.309 43.7036 294.969 45.0469 294.969 46.7035C294.968 47.0971 295.045 47.4868 295.196 47.8506C295.346 48.2143 295.566 48.5449 295.844 48.8235C296.122 49.1021 296.453 49.3231 296.816 49.4741C297.179 49.6251 297.569 49.703 297.963 49.7034" fill="#272D38"/>
<path d="M279 46.7035C279 47.0971 279.077 47.4868 279.227 47.8506C279.377 48.2143 279.598 48.5449 279.876 48.8235C280.154 49.1021 280.484 49.3231 280.847 49.4741C281.211 49.6251 281.6 49.703 281.994 49.7034C282.789 49.7026 283.551 49.3861 284.112 48.8235C284.674 48.261 284.989 47.4984 284.988 46.7035V43.7036H281.994C280.34 43.7036 279 45.0469 279 46.7035ZM286.984 46.7035V54.7032C286.984 56.3603 288.324 57.7036 289.978 57.7036C290.773 57.7028 291.535 57.3863 292.096 56.8237C292.658 56.2612 292.973 55.4986 292.972 54.7037V46.7035C292.973 46.3099 292.896 45.9201 292.745 45.5563C292.595 45.1925 292.375 44.8619 292.097 44.5833C291.819 44.3048 291.488 44.0837 291.125 43.9327C290.761 43.7818 290.372 43.7039 289.978 43.7036C288.324 43.7036 286.984 45.0469 286.984 46.7035Z" fill="#272D38"/>
<path d="M560.05 33.0131H567.672C572.532 33.0131 576.546 35.8247 576.546 42.2442V43.5931C576.546 50.0613 572.792 52.9704 567.819 52.9704H560.05V33.0131ZM564.308 36.6373V49.33H567.575C570.338 49.33 572.19 47.526 572.19 43.5118V42.4555C572.19 38.4412 570.24 36.6373 567.429 36.6373H564.308ZM578.805 36.8323H582.218L582.77 40.5865C583.421 38.0349 585.078 36.6698 588.085 36.6698H589.141V40.9765H587.386C583.924 40.9765 583.079 42.1792 583.079 45.5921V53.0192H578.87V36.8323H578.805ZM589.986 45.2508V44.7957C589.986 39.3838 593.448 36.426 598.161 36.426C602.972 36.426 606.336 39.3838 606.336 44.7957V45.2508C606.336 50.5652 603.069 53.4255 598.161 53.4255C592.944 53.3767 589.986 50.5814 589.986 45.2508ZM602.029 45.202V44.7957C602.029 41.7891 600.518 39.9852 598.112 39.9852C595.756 39.9852 594.196 41.6429 594.196 44.7957V45.202C594.196 48.1111 595.707 49.7688 598.112 49.7688C600.518 49.7201 602.029 48.1111 602.029 45.202ZM608.546 36.8323H612.056L612.463 39.8877C613.308 37.8399 615.112 36.426 617.777 36.426C621.889 36.426 624.603 39.3838 624.603 44.8607V45.3158C624.603 50.6302 621.596 53.4417 617.777 53.4417C615.226 53.4417 613.47 52.2879 612.609 50.4351V58.6098H608.497L608.546 36.8323ZM620.329 45.202V44.8445C620.329 41.6266 618.671 40.0339 616.461 40.0339C614.104 40.0339 612.544 41.8379 612.544 44.8445V45.1533C612.544 48.0136 614.055 49.8176 616.412 49.8176C618.833 49.7688 620.329 48.2249 620.329 45.202ZM630.827 50.0288L630.47 52.9867H626.862V31.4204H630.974V39.6926C631.884 37.5799 633.688 36.426 636.239 36.426C640.107 36.4748 642.968 39.1401 642.968 44.5032V45.007C642.968 50.3701 640.253 53.4417 636.142 53.4417C633.428 53.3767 631.672 52.1253 630.827 50.0288ZM638.645 45.007V44.6007C638.645 41.6429 637.036 39.9852 634.777 39.9852C632.469 39.9852 630.86 41.8379 630.86 44.6495V45.007C630.86 48.0136 632.42 49.7688 634.728 49.7688C637.198 49.7688 638.645 48.2249 638.645 45.007ZM644.771 45.2508V44.7957C644.771 39.3838 648.233 36.426 652.946 36.426C657.757 36.426 661.121 39.3838 661.121 44.7957V45.2508C661.121 50.5652 657.806 53.4255 652.946 53.4255C647.729 53.3767 644.771 50.5814 644.771 45.2508ZM656.847 45.202V44.7957C656.847 41.7891 655.335 39.9852 652.93 39.9852C650.573 39.9852 649.013 41.6429 649.013 44.7957V45.202C649.013 48.1111 650.525 49.7688 652.93 49.7688C655.351 49.7201 656.847 48.1111 656.847 45.202ZM666.63 44.6007L660.958 36.8323H665.818L669.084 41.6916L672.4 36.8323H677.21L671.457 44.5519L677.519 52.9867H672.757L669.052 47.6236L665.444 52.9867H660.471L666.63 44.6007Z" fill="#272D38"/>
<path d="M533.852 33.0132L524.426 39.0264L533.852 45.0396L524.426 51.0528L515 45.0071L524.426 38.9939L515 33.0132L524.426 27L533.852 33.0132ZM524.377 52.9868L533.803 46.9736L543.23 52.9868L533.803 59L524.377 52.9868ZM533.852 45.0071L543.278 38.9939L533.852 33.0132L543.23 27L552.656 33.0132L543.23 39.0264L552.656 45.0396L543.23 51.0528L533.852 45.0071Z" fill="#272D38"/>
<path fill-rule="evenodd" clip-rule="evenodd" d="M872.707 39.5972C873.081 40.2429 873.204 40.9774 873.244 41.8032L873.297 42.9039V50.6007L873.352 51.7025C873.46 53.502 874.787 54.8325 876.601 54.9457L877.697 55V42.9039L877.751 41.8032C877.796 40.9867 877.917 40.2382 878.297 39.588C878.685 38.921 879.24 38.3677 879.909 37.9835C880.578 37.5993 881.336 37.3978 882.107 37.3992C882.878 37.4006 883.635 37.6049 884.303 37.9915C884.97 38.3781 885.524 38.9335 885.909 39.6018C886.283 40.2475 886.4 40.9959 886.445 41.8032L886.499 42.9005V50.6007L886.553 51.7025C886.666 53.5112 887.983 54.8418 889.802 54.9457L890.898 55V41.8032C890.898 39.4697 889.971 37.2317 888.322 35.5813C886.672 33.9309 884.434 33.0032 882.101 33.0023C880.852 33.001 879.617 33.2662 878.479 33.7803C877.34 34.2944 876.325 35.0454 875.5 35.9833C874.675 35.0458 873.659 34.2949 872.521 33.7807C871.383 33.2665 870.148 33.0007 868.899 33.0012C867.072 33.0012 865.377 33.5555 863.972 34.513C863.115 33.5567 861.198 33.0012 860.097 33.0012V55L861.198 54.9457C863.039 54.8244 864.369 53.5297 864.441 51.7025L864.5 50.6007V42.9039L864.554 41.8032C864.6 40.9728 864.716 40.2429 865.091 39.5926C865.479 38.9261 866.034 38.3728 866.703 37.9882C867.371 37.6035 868.128 37.4009 868.899 37.4005C869.671 37.4006 870.429 37.6037 871.097 37.9893C871.766 38.3748 872.321 38.9294 872.707 39.5972ZM797.399 54.9469L798.5 55H814.999L814.945 53.9028C814.796 52.0941 813.515 50.7728 811.7 50.655L810.6 50.6007H800.701L813.898 37.3993L813.844 36.3032C813.758 34.4761 812.423 33.1559 810.6 33.0554L809.499 33.0058L793 33.0012L793.054 34.1019C793.199 35.8932 794.498 37.2422 796.297 37.3462L797.399 37.4005H807.297L794.101 50.6018L794.155 51.7025C794.264 53.5159 795.572 54.8291 797.399 54.9457V54.9469ZM855.779 36.2212C856.8 37.2426 857.611 38.4552 858.164 39.7898C858.717 41.1244 859.001 42.5548 859.001 43.9994C859.001 45.444 858.717 46.8744 858.164 48.209C857.611 49.5436 856.8 50.7562 855.779 51.7776C853.715 53.8399 850.917 54.9983 847.999 54.9983C845.081 54.9983 842.283 53.8399 840.219 51.7776C835.924 47.4823 835.924 40.5166 840.219 36.2212C841.24 35.2002 842.451 34.3902 843.785 33.8375C845.119 33.2848 846.548 33.0002 847.992 33C849.438 32.999 850.87 33.2831 852.206 33.836C853.542 34.3889 854.756 35.1999 855.779 36.2224V36.2212ZM852.666 39.3362C853.903 40.5744 854.598 42.2531 854.598 44.0035C854.598 45.7538 853.903 47.4326 852.666 48.6707C851.428 49.908 849.749 50.6029 847.999 50.6029C846.248 50.6029 844.57 49.908 843.332 48.6707C842.094 47.4326 841.399 45.7538 841.399 44.0035C841.399 42.2531 842.094 40.5744 843.332 39.3362C844.57 38.099 846.248 37.404 847.999 37.404C849.749 37.404 851.428 38.099 852.666 39.3362ZM824.906 33C826.35 33.0004 827.78 33.2851 829.113 33.8381C830.447 34.391 831.659 35.2012 832.679 36.2224C836.976 40.5166 836.976 47.4834 832.679 51.7776C830.615 53.8399 827.817 54.9983 824.899 54.9983C821.982 54.9983 819.183 53.8399 817.119 51.7776C812.824 47.4823 812.824 40.5166 817.119 36.2212C818.14 35.2002 819.352 34.3902 820.685 33.8375C822.019 33.2848 823.449 33.0002 824.892 33H824.906ZM829.567 39.3339C830.804 40.5721 831.499 42.2511 831.499 44.0017C831.499 45.7524 830.804 47.4314 829.567 48.6696C828.328 49.9068 826.65 50.6018 824.899 50.6018C823.149 50.6018 821.47 49.9068 820.232 48.6696C818.995 47.4314 818.3 45.7527 818.3 44.0023C818.3 42.252 818.995 40.5732 820.232 39.335C821.47 38.0978 823.149 37.4028 824.899 37.4028C826.65 37.4028 828.328 38.0978 829.567 39.335V39.3339Z" fill="#272D38"/>
<defs>
<clipPath id="clip0_61_49">
<rect width="140" height="48" fill="white" transform="translate(24 19)"/>
</clipPath>
</defs>
</svg>
